<svg xmlns="http://www.w3.org/2000/svg" viewBox="0 0 512 512" width="60px" height="40px"><g xmlns="http://www.w3.org/2000/svg" transform="matrix(0 1 -1 0 512 -0)"><g xmlns="http://www.w3.org/2000/svg" transform="matrix(0 1 -1 0 512 -0)"><g transform="translate(0.000000,512.000000) scale(0.100000,-0.100000)" fill="gray" stroke="none"><path d="M41 3864 c-38 -32 -49 -80 -27 -126 9 -18 558 -575 1254 -1271 l1237 -1237 55 0 55 0 1237 1237 c696 696 1245 1253 1254 1271 36 76 -17 152 -104 152 l-47 0 -1197 -1197 -1198 -1198 -1198 1198 -1197 1197 -47 0 c-35 0 -54 -6 -77 -26z" /></g></g></g></svg>